<svg width="25" height="25" viewBox="0 0 25 25" xmlns="http://www.w3.org/2000/svg"><title>表情</title><g fill="#292C35" fill-rule="evenodd"><path d="M12.494 24.978C5.616 24.978.022 19.383.022 12.506S5.617.034 12.494.034s12.472 5.595 12.472 12.472-5.595 12.472-12.472 12.472zm0-23.13c-5.877 0-10.658 4.782-10.658 10.658 0 5.877 4.781 10.658 10.658 10.658 5.876 0 10.657-4.782 10.657-10.658 0-5.876-4.781-10.657-10.657-10.657z"/><path d="M12.494 24.544c-6.638 0-12.038-5.4-12.038-12.038S5.856.468 12.494.468c6.637 0 12.038 5.4 12.038 12.038s-5.4 12.038-12.038 12.038zm0-23.129c-6.116 0-11.091 4.976-11.091 11.091 0 6.116 4.975 11.092 11.09 11.092 6.116 0 11.092-4.976 11.092-11.092 0-6.116-4.976-11.091-11.091-11.091z"/><path d="M12.494 24.761C5.736 24.761.239 19.264.239 12.506.239 5.75 5.736.251 12.494.251c6.757 0 12.255 5.498 12.255 12.255 0 6.758-5.498 12.255-12.255 12.255zm0-23.13c-5.997 0-10.875 4.879-10.875 10.875s4.879 10.875 10.875 10.875 10.874-4.879 10.874-10.875S18.49 1.632 12.494 1.632z"/><path d="M12.494 24.327c-6.519 0-11.821-5.303-11.821-11.82C.673 5.986 5.976.684 12.493.684c6.519 0 11.822 5.303 11.822 11.821s-5.303 11.821-11.821 11.821zm0-23.13c-6.236 0-11.309 5.074-11.309 11.31 0 6.234 5.073 11.308 11.309 11.308 6.235 0 11.308-5.073 11.308-11.309 0-6.235-5.073-11.308-11.308-11.308z"/><path d="M7.29 10.4a1.365 1.365 0 0 1-1.364-1.363c0-.752.612-1.364 1.363-1.364a1.365 1.365 0 0 1 0 2.728"/><path d="M7.29 9.967a.931.931 0 0 1 0-1.86.931.931 0 0 1 0 1.86zm0-1.157a.227.227 0 1 0 0 .454.227.227 0 0 0 0-.454z"/><path d="M7.29 10.184a1.148 1.148 0 0 1-1.147-1.147c0-.632.514-1.147 1.146-1.147a1.148 1.148 0 0 1 0 2.294"/><path d="M7.29 9.75a.714.714 0 0 1 0-1.426.714.714 0 0 1 0 1.426zm0-1.157a.444.444 0 1 0 0 .888.444.444 0 0 0 0-.888z"/><path d="M7.29 10.266a1.23 1.23 0 0 1-1.23-1.23 1.23 1.23 0 0 1 2.458 0 1.23 1.23 0 0 1-1.229 1.23"/><path d="M7.29 9.832a.796.796 0 1 1 0-1.592.796.796 0 0 1-.002 1.592zm0-1.157a.362.362 0 1 0 0 .724.362.362 0 0 0 0-.724z"/><path d="M7.29 10.05a1.013 1.013 0 0 1 0-2.025 1.013 1.013 0 0 1 0 2.024zm0-1.157a.144.144 0 1 0 0 .288.144.144 0 0 0 0-.288z"/><path d="M7.868 9.037a.579.579 0 1 1-1.158-.001.579.579 0 0 1 1.158 0"/><path d="M7.29 10.523a1.487 1.487 0 1 1 1.485-1.486c0 .819-.666 1.486-1.486 1.486"/><path d="M7.29 10.088a1.053 1.053 0 0 1 0-2.103 1.053 1.053 0 0 1 0 2.103zm0-1.156a.105.105 0 1 0 0 .21.105.105 0 0 0 0-.21z"/><path d="M7.29 10.305a1.27 1.27 0 0 1-1.269-1.268c0-.7.569-1.269 1.268-1.269a1.27 1.27 0 0 1 0 2.537"/><path d="M7.29 9.872a.836.836 0 0 1 0-1.67.836.836 0 0 1 0 1.67zm0-1.157a.322.322 0 1 0 0 .644.322.322 0 0 0 0-.644z"/><path d="M7.29 10.388a1.352 1.352 0 0 1-.001-2.702 1.352 1.352 0 0 1 .001 2.702"/><path d="M7.29 9.954a.918.918 0 0 1 0-1.834.918.918 0 0 1 0 1.834zm0-1.157a.24.24 0 1 0 0 .48.24.24 0 0 0 0-.48z"/><path d="M7.29 10.17a1.135 1.135 0 0 1-1.134-1.133 1.135 1.135 0 0 1 2.268 0c0 .625-.51 1.134-1.135 1.134zm.04-1.156a.064.064 0 0 0-.063.063c0 .033.03.062.062.062a.064.064 0 0 0 .063-.062.064.064 0 0 0-.063-.063z"/><path d="M7.29 9.737a.7.7 0 1 1 .001-1.402.7.7 0 0 1-.002 1.402zm0-1.157a.457.457 0 1 0 0 .914.457.457 0 0 0 0-.914zm10.408 1.82a1.365 1.365 0 0 1-1.364-1.363c0-.752.612-1.364 1.364-1.364.752 0 1.364.612 1.364 1.364 0 .752-.612 1.364-1.364 1.364"/><path d="M17.698 9.967a.931.931 0 0 1 0-1.86.931.931 0 0 1 0 1.86zm0-1.157a.227.227 0 1 0 0 .454.227.227 0 0 0 0-.454z"/><path d="M17.698 10.184a1.148 1.148 0 0 1 0-2.294 1.148 1.148 0 0 1 0 2.294"/><path d="M17.698 9.75a.714.714 0 1 1 .002-1.428.714.714 0 0 1-.002 1.428zm0-1.157a.444.444 0 1 0 .001.889.444.444 0 0 0-.001-.889z"/><path d="M17.698 10.266a1.23 1.23 0 0 1-1.23-1.23 1.23 1.23 0 0 1 2.458 0 1.23 1.23 0 0 1-1.228 1.23"/><path d="M17.698 9.832a.796.796 0 0 1 0-1.59.796.796 0 0 1 0 1.59zm0-1.157a.362.362 0 1 0 0 .724.362.362 0 0 0 0-.724z"/><path d="M17.698 10.05a1.013 1.013 0 0 1 0-2.025 1.013 1.013 0 0 1 0 2.024zm0-1.157a.144.144 0 1 0 0 .288.144.144 0 0 0 0-.288z"/><path d="M18.276 9.037a.579.579 0 1 1-1.157-.001.579.579 0 0 1 1.157 0"/><path d="M17.698 10.523c-.82 0-1.486-.667-1.486-1.486 0-.82.667-1.486 1.486-1.486.82 0 1.486.667 1.486 1.486s-.667 1.486-1.486 1.486"/><path d="M17.698 10.088a1.053 1.053 0 0 1 0-2.103 1.053 1.053 0 0 1 0 2.103zm0-1.156a.105.105 0 1 0 0 .21.105.105 0 0 0 0-.21z"/><path d="M17.698 10.305a1.27 1.27 0 0 1-1.269-1.268c0-.7.57-1.269 1.269-1.269a1.27 1.27 0 0 1 0 2.537"/><path d="M17.698 9.872a.836.836 0 0 1 0-1.67.836.836 0 0 1 0 1.67zm0-1.157a.322.322 0 1 0 0 .644.322.322 0 0 0 0-.644z"/><path d="M17.698 10.388a1.352 1.352 0 0 1 0-2.702 1.351 1.351 0 0 1 0 2.702"/><path d="M17.698 9.954a.918.918 0 0 1 0-1.834.918.918 0 0 1 0 1.834zm0-1.157a.24.24 0 1 0 0 .48.24.24 0 0 0 0-.48z"/><path d="M17.698 10.17a1.135 1.135 0 0 1-1.134-1.133c0-.625.509-1.134 1.134-1.134.625 0 1.134.509 1.134 1.134 0 .625-.509 1.134-1.134 1.134zm.04-1.156a.064.064 0 0 0-.063.063c0 .033.03.062.063.062s.062-.029.062-.062a.064.064 0 0 0-.062-.063z"/><path d="M17.698 9.737a.7.7 0 1 1 .001-1.402.7.7 0 0 1-.001 1.402zm0-1.157a.457.457 0 1 0 .001.915.457.457 0 0 0-.001-.915zM10.18 19.196a3.224 3.224 0 0 1-3.22-3.22c0-.836.322-1.63.907-2.235a.911.911 0 0 1 1.283-.023.901.901 0 0 1 .277.637.9.9 0 0 1-.255.647 1.398 1.398 0 0 0-.397.974c0 .775.63 1.406 1.405 1.406s1.406-.631 1.406-1.406a.908.908 0 0 1 1.814 0 3.224 3.224 0 0 1-3.22 3.22"/><path d="M10.18 18.762a2.79 2.79 0 0 1-2.786-2.786c0-.723.279-1.41.785-1.934a.476.476 0 0 1 .67-.012.47.47 0 0 1 .011.67c-.335.346-.52.8-.52 1.275 0 1.015.826 1.84 1.84 1.84 1.014 0 1.84-.825 1.84-1.84a.474.474 0 0 1 .946 0 2.79 2.79 0 0 1-2.786 2.787"/><path d="M10.18 18.979a3.007 3.007 0 0 1-3.003-3.003c0-.78.3-1.52.846-2.085A.693.693 0 0 1 9 13.874c.132.128.207.3.21.485a.686.686 0 0 1-.194.492 1.613 1.613 0 0 0-.459 1.125c0 .894.728 1.622 1.623 1.622s1.623-.728 1.623-1.622a.69.69 0 0 1 1.38 0 3.007 3.007 0 0 1-3.003 3.003"/><path d="M10.18 18.545a2.572 2.572 0 0 1-2.57-2.57c0-.665.258-1.298.725-1.782a.258.258 0 0 1 .363-.007.255.255 0 0 1 .006.363c-.374.388-.58.894-.58 1.427 0 1.134.922 2.056 2.056 2.056a2.059 2.059 0 0 0 2.056-2.056.257.257 0 0 1 .513 0 2.572 2.572 0 0 1-2.569 2.569"/><path d="M10.18 19.061a3.09 3.09 0 0 1-3.085-3.085c0-.8.308-1.561.869-2.142a.776.776 0 0 1 1.092-.02.774.774 0 0 1 .02 1.094c-.282.29-.436.67-.436 1.068 0 .849.69 1.54 1.54 1.54.85 0 1.54-.691 1.54-1.54a.774.774 0 0 1 1.546 0 3.09 3.09 0 0 1-3.086 3.085"/><path d="M10.18 18.627a2.655 2.655 0 0 1-2.651-2.651c0-.688.265-1.341.747-1.84a.34.34 0 0 1 .48-.009.34.34 0 0 1 .008.48c-.36.371-.558.858-.558 1.369 0 1.088.886 1.974 1.974 1.974a1.976 1.976 0 0 0 1.975-1.974.34.34 0 0 1 .677 0 2.655 2.655 0 0 1-2.652 2.652"/><path d="M10.18 18.844a2.872 2.872 0 0 1-2.868-2.868c0-.744.287-1.451.808-1.991a.558.558 0 0 1 .786-.014c.22.213.227.566.014.786-.32.331-.497.764-.497 1.219a1.76 1.76 0 0 0 1.757 1.757 1.76 1.76 0 0 0 1.757-1.757.556.556 0 0 1 1.112 0 2.872 2.872 0 0 1-2.87 2.868h.001"/><path d="M10.18 18.41a2.437 2.437 0 0 1-2.435-2.434c0-.631.244-1.231.687-1.69a.122.122 0 1 1 .175.17 2.18 2.18 0 0 0-.618 1.52c0 1.208.983 2.19 2.191 2.19a2.194 2.194 0 0 0 2.191-2.19.122.122 0 0 1 .244 0 2.437 2.437 0 0 1-2.435 2.434"/><path d="M14.807 19.196a3.224 3.224 0 0 1-3.22-3.22.908.908 0 0 1 1.814 0 1.406 1.406 0 0 0 2.811 0 1.4 1.4 0 0 0-.397-.975.898.898 0 0 1-.255-.646.9.9 0 0 1 .278-.638.91.91 0 0 1 1.284.025 3.2 3.2 0 0 1 .905 2.234 3.224 3.224 0 0 1-3.22 3.22"/><path d="M14.807 18.762a2.79 2.79 0 0 1-2.787-2.786.474.474 0 0 1 .947 0c0 1.014.825 1.84 1.84 1.84 1.014 0 1.84-.826 1.84-1.84 0-.477-.185-.93-.52-1.277a.47.47 0 0 1 .012-.67.475.475 0 0 1 .67.013 2.77 2.77 0 0 1 .784 1.934 2.79 2.79 0 0 1-2.786 2.786"/><path d="M14.807 18.979a3.007 3.007 0 0 1-3.004-3.003.691.691 0 0 1 1.381 0c0 .894.728 1.622 1.623 1.622.894 0 1.622-.728 1.622-1.622 0-.42-.163-.82-.458-1.126a.684.684 0 0 1-.194-.491.685.685 0 0 1 .211-.485.693.693 0 0 1 .977.019c.545.563.845 1.303.845 2.083a3.007 3.007 0 0 1-3.003 3.003"/><path d="M14.807 18.545a2.572 2.572 0 0 1-2.57-2.57.257.257 0 0 1 .513 0c0 1.135.923 2.057 2.057 2.057a2.059 2.059 0 0 0 2.056-2.056c0-.533-.206-1.04-.58-1.427a.256.256 0 1 1 .37-.356c.466.483.723 1.116.723 1.783a2.572 2.572 0 0 1-2.57 2.569"/><path d="M14.807 19.061a3.09 3.09 0 0 1-3.086-3.085.774.774 0 0 1 1.545 0c0 .849.691 1.54 1.54 1.54.85 0 1.541-.691 1.541-1.54 0-.399-.155-.778-.435-1.068a.768.768 0 0 1-.217-.55.767.767 0 0 1 .237-.544.776.776 0 0 1 1.093.021c.559.58.867 1.34.867 2.14a3.09 3.09 0 0 1-3.085 3.086"/><path d="M14.807 18.627a2.655 2.655 0 0 1-2.652-2.651.34.34 0 0 1 .677 0c0 1.088.886 1.974 1.975 1.974a1.976 1.976 0 0 0 1.974-1.974c0-.512-.198-.998-.557-1.37a.336.336 0 0 1 .009-.48.336.336 0 0 1 .478.01c.482.498.747 1.152.747 1.84a2.655 2.655 0 0 1-2.652 2.651"/><path d="M14.807 18.844a2.872 2.872 0 0 1-2.87-2.868.556.556 0 0 1 1.112 0 1.76 1.76 0 0 0 1.757 1.757 1.76 1.76 0 0 0 1.757-1.757c0-.455-.176-.888-.496-1.22a.551.551 0 0 1 .015-.786.558.558 0 0 1 .786.015c.52.54.807 1.246.807 1.99a2.872 2.872 0 0 1-2.869 2.87"/><path d="M14.807 18.41a2.438 2.438 0 0 1-2.435-2.434.122.122 0 0 1 .243 0c0 1.208.983 2.19 2.192 2.19a2.194 2.194 0 0 0 2.191-2.19 2.18 2.18 0 0 0-.618-1.52.122.122 0 1 1 .175-.17 2.42 2.42 0 0 1 .687 1.69 2.438 2.438 0 0 1-2.435 2.434"/><path d="M12.494 16.883a.908.908 0 0 1-.908-.907v-.579a.908.908 0 0 1 1.815 0v.579c0 .5-.407.907-.907.907"/><path d="M12.494 16.45a.474.474 0 0 1-.474-.474v-.579a.474.474 0 0 1 .947 0v.579a.474.474 0 0 1-.473.473"/><path d="M12.494 16.666a.69.69 0 0 1-.69-.69v-.579a.691.691 0 0 1 1.38 0v.579c0 .38-.31.69-.69.69"/><path d="M12.494 16.232a.257.257 0 0 1-.257-.256v-.579a.257.257 0 0 1 .513 0v.579a.257.257 0 0 1-.256.256"/><path d="M12.494 16.748a.774.774 0 0 1-.773-.773v-.578a.774.774 0 0 1 1.545 0v.578a.774.774 0 0 1-.772.773"/><path d="M12.494 16.314a.34.34 0 0 1-.34-.338v-.579a.34.34 0 0 1 .678 0v.579a.339.339 0 0 1-.338.338"/><path d="M12.494 16.531a.556.556 0 0 1-.556-.555v-.579a.556.556 0 0 1 1.111 0v.579c0 .306-.25.555-.555.555"/><path d="M12.58 16.097c-.115 0-.208-.054-.208-.121v-.579c0-.067.093-.121.208-.121.115 0 .208.054.208.121v.579c0 .067-.093.121-.208.121"/></g></svg>